# 3D Model - Last Effort (But it's still a fly, not the coffee sample)
# Vertices: 898, Faces: 29
v -3.315178 -1.504131 -0.024191
v -3.315178 -0.486380 -0.024191
v -3.279675 -1.504131 -0.031791
v -3.279675 -0.486380 -0.031791
v -3.256006 -1.504131 -0.039392
v -3.256006 -0.486380 -0.039392
v -3.244172 -1.504131 -0.039392
v -3.244172 -0.486380 -0.039392
v -3.232337 -1.504131 -0.024191
v -3.232337 -0.486380 -0.024191
v -3.220503 -1.504131 -0.031791
v -3.220503 -0.486380 -0.031791
v -3.208669 -1.504131 -0.039392
v -3.208669 -0.486380 -0.039392
v -3.196835 -1.504131 -0.031791
v -3.196835 -0.486380 -0.031791
v -3.185000 -1.504131 -0.008989
v -3.185000 -0.486380 -0.008989
v -3.173166 -1.504131 -0.046993
v -3.173166 -0.486380 -0.046993
v -3.161332 -1.504131 -0.046993
v -3.161332 -0.486380 -0.046993
v -3.149497 -1.504131 -0.039392
v -3.149497 -0.486380 -0.039392
v -3.137663 -1.504131 -0.054594
v -3.137663 -0.486380 -0.054594
v -3.125829 -1.504131 -0.054594
v -3.125829 -0.486380 -0.054594
v -3.102160 -1.504131 -0.046993
v -3.102160 -0.486380 -0.046993
v -3.066657 -1.504131 -0.062194
v -3.066657 -0.486380 -0.062194
v -3.054823 -1.504131 -0.062194
v -3.054823 -0.486380 -0.062194
v -3.042989 -1.504131 -0.062194
v -3.042989 -0.486380 -0.062194
v -3.019320 -1.504131 -0.062194
v -3.019320 -0.486380 -0.062194
v -3.007485 -1.504131 -0.062194
v -3.007485 -0.486380 -0.062194
v -2.995651 -1.504131 -0.069795
v -2.995651 -0.486380 -0.069795
v -2.960148 -1.504131 -0.016590
v -2.960148 -0.486380 -0.016590
v -2.948314 -1.504131 -0.016590
v -2.948314 -0.486380 -0.016590
v -2.936480 -1.504131 -0.016590
v -2.936480 -0.486380 -0.016590
v -2.924645 -1.504131 -0.054594
v -2.924645 -0.486380 -0.054594
v -2.912811 -1.527800 0.325446
v -2.912811 -1.504131 -0.054594
v -2.912811 -0.510049 0.325446
v -2.912811 -0.486380 -0.054594
v -2.900977 -1.504131 -0.024191
v -2.900977 -0.486380 -0.024191
v -2.889142 -1.504131 -0.024191
v -2.889142 -0.486380 -0.024191
v -2.877308 -1.527800 0.295043
v -2.877308 -1.504131 -0.024191
v -2.877308 -0.510049 0.295043
v -2.877308 -0.486380 -0.024191
v -2.865474 -1.527800 0.310244
v -2.865474 -1.504131 -0.069795
v -2.865474 -0.510049 0.310244
v -2.865474 -0.486380 -0.069795
v -2.853639 -1.504131 -0.069795
v -2.853639 -0.486380 -0.069795
v -2.841805 -1.504131 -0.031791
v -2.841805 -0.486380 -0.031791
v -2.829971 -1.504131 -0.031791
v -2.829971 -0.486380 -0.031791
v -2.806302 -1.504131 -0.016590
v -2.806302 -0.486380 -0.016590
v -2.782633 -1.504131 -0.031791
v -2.782633 -0.486380 -0.031791
v -2.770799 -1.504131 -0.031791
v -2.770799 -0.486380 -0.031791
v -2.758965 -1.504131 -0.039392
v -2.758965 -0.486380 -0.039392
v -2.747130 -1.504131 -0.024191
v -2.747130 -0.486380 -0.024191
v -2.735296 -1.504131 -0.024191
v -2.735296 -0.486380 -0.024191
v -2.723462 -1.504131 -0.077396
v -2.723462 -0.486380 -0.077396
v -2.711627 -1.504131 -0.077396
v -2.711627 -0.486380 -0.077396
v -2.699793 -1.504131 -0.031791
v -2.699793 -0.486380 -0.031791
v -2.687959 -1.504131 -0.069795
v -2.687959 -0.486380 -0.069795
v -2.664290 -1.504131 -0.016590
v -2.664290 -0.486380 -0.016590
v -2.652456 -1.527800 0.234236
v -2.652456 -1.504131 -0.046993
v -2.652456 -0.510049 0.234236
v -2.652456 -0.486380 -0.046993
v -2.640622 -1.504131 -0.062194
v -2.640622 -0.486380 -0.062194
v -2.628787 -1.504131 -0.084997
v -2.628787 -0.486380 -0.084997
v -2.616953 -1.504131 -0.046993
v -2.616953 -0.486380 -0.046993
v -2.605119 -1.527800 0.181031
v -2.605119 -1.504131 -0.062194
v -2.605119 -0.510049 0.181031
v -2.605119 -0.486380 -0.062194
v -2.593284 -1.504131 -0.046993
v -2.593284 -0.486380 -0.046993
v -2.581450 -1.504131 -0.016590
v -2.581450 -0.486380 -0.016590
v -2.569616 -1.504131 -0.016590
v -2.569616 -0.486380 -0.016590
v -2.557781 -1.504131 -0.039392
v -2.557781 -0.486380 -0.039392
v -2.545947 -1.504131 -0.077396
v -2.545947 -0.486380 -0.077396
v -2.534113 -1.504131 -0.054594
v -2.534113 -0.486380 -0.054594
v -2.522278 -1.504131 -0.054594
v -2.522278 -0.486380 -0.054594
v -2.510444 -1.504131 -0.024191
v -2.510444 -0.486380 -0.024191
v -2.498610 -1.504131 -0.084997
v -2.498610 -0.486380 -0.084997
v -2.486775 -1.504131 -0.024191
v -2.486775 -0.486380 -0.024191
v -2.474941 -1.504131 -0.054594
v -2.474941 -0.486380 -0.054594
v -2.463107 -1.504131 -0.084997
v -2.463107 -0.486380 -0.084997
v -2.451272 -1.504131 -0.062194
v -2.451272 -0.486380 -0.062194
v -2.439438 -1.504131 -0.054594
v -2.439438 -0.486380 -0.054594
v -2.427604 -1.504131 -0.054594
v -2.427604 -0.486380 -0.054594
v -2.415770 -1.504131 -0.062194
v -2.415770 -0.486380 -0.062194
v -2.403935 -1.504131 -0.031791
v -2.403935 -0.486380 -0.031791
v -2.392101 -1.504131 -0.039392
v -2.392101 -0.486380 -0.039392
v -2.380267 -1.504131 -0.031791
v -2.380267 -0.486380 -0.031791
v -2.368432 -1.504131 -0.054594
v -2.368432 -0.486380 -0.054594
v -2.356598 -1.504131 -0.062194
v -2.356598 -0.486380 -0.062194
v -2.332929 -1.504131 -0.054594
v -2.332929 -0.486380 -0.054594
v -2.321095 -1.504131 -0.062194
v -2.321095 -0.486380 -0.062194
v -2.309261 -1.504131 -0.031791
v -2.309261 -0.486380 -0.031791
v -2.297426 -1.504131 -0.031791
v -2.297426 -0.486380 -0.031791
v -2.285592 -1.504131 -0.092598
v -2.285592 -0.486380 -0.092598
v -2.273758 -1.504131 -0.039392
v -2.273758 -0.486380 -0.039392
v -2.261923 -1.504131 -0.039392
v -2.261923 -0.486380 -0.039392
v -2.250089 -1.504131 -0.062194
v -2.250089 -0.486380 -0.062194
v -2.238255 -1.515966 -0.054594
v -2.238255 -1.504131 -0.046993
v -2.238255 -0.498214 -0.054594
v -2.238255 -0.486380 -0.046993
v -2.226420 -1.515966 -0.054594
v -2.226420 -1.504131 -0.077396
v -2.226420 -0.498214 -0.054594
v -2.226420 -0.486380 -0.077396
v -2.214586 -1.504131 -0.077396
v -2.214586 -0.486380 -0.077396
v -2.202752 -1.504131 -0.077396
v -2.202752 -0.486380 -0.077396
v -2.190917 -1.504131 -0.039392
v -2.190917 -0.486380 -0.039392
v -2.179083 -1.504131 -0.062194
v -2.179083 -0.486380 -0.062194
v -2.167249 -1.504131 -0.069795
v -2.167249 -0.486380 -0.069795
v -2.155415 -1.527800 0.340648
v -2.155415 -1.504131 -0.069795
v -2.155415 -0.510049 0.340648
v -2.155415 -0.486380 -0.069795
v -2.143580 -1.504131 -0.046993
v -2.143580 -0.486380 -0.046993
v -2.131746 -1.504131 -0.046993
v -2.131746 -0.486380 -0.046993
v -2.119912 -1.504131 -0.046993
v -2.119912 -0.486380 -0.046993
v -2.108077 -1.504131 -0.062194
v -2.108077 -0.486380 -0.062194
v -2.096243 -1.504131 -0.008989
v -2.096243 -0.486380 -0.008989
v -2.084409 -1.504131 -0.046993
v -2.084409 -0.486380 -0.046993
v -2.060740 -1.504131 -0.046993
v -2.060740 -0.486380 -0.046993
v -2.048906 -1.504131 -0.039392
v -2.048906 -0.486380 -0.039392
v -2.037071 -1.504131 -0.046993
v -2.037071 -0.486380 -0.046993
v -2.025237 -1.504131 -0.046993
v -2.025237 -0.486380 -0.046993
v -2.013402 -1.504131 -0.046993
v -2.013402 -0.486380 -0.046993
v -2.001568 -1.527800 0.067019
v -2.001568 -1.504131 -0.039392
v -2.001568 -0.510049 0.067019
v -2.001568 -0.486380 -0.039392
v -1.989734 -1.515966 -0.046993
v -1.989734 -1.504131 -0.039392
v -1.989734 -0.498214 -0.046993
v -1.989734 -0.486380 -0.039392
v -1.977900 -1.515966 -0.046993
v -1.977900 -1.504131 -0.039392
v -1.977900 -0.498214 -0.046993
v -1.977900 -0.486380 -0.039392
v -1.966065 -1.504131 -0.069795
v -1.966065 -0.486380 -0.069795
v -1.954231 -1.539634 0.196233
v -1.954231 -1.504131 -0.031791
v -1.954231 -0.521883 0.196233
v -1.954231 -0.486380 -0.031791
v -1.942397 -1.504131 -0.054594
v -1.942397 -0.486380 -0.054594
v -1.930562 -1.504131 -0.054594
v -1.930562 -0.486380 -0.054594
v -1.918728 -1.539634 0.203833
v -1.918728 -1.504131 -0.054594
v -1.918728 -0.521883 0.203833
v -1.918728 -0.486380 -0.054594
v -1.906894 -1.527800 0.287442
v -1.906894 -1.504131 -0.054594
v -1.906894 -0.510049 0.287442
v -1.906894 -0.486380 -0.054594
v -1.895059 -1.504131 -0.062194
v -1.895059 -0.486380 -0.062194
v -1.883225 -1.504131 -0.024191
v -1.883225 -0.486380 -0.024191
v -1.871391 -1.504131 -0.077396
v -1.871391 -0.486380 -0.077396
v -1.859556 -1.504131 -0.054594
v -1.859556 -0.486380 -0.054594
v -1.847722 -1.515966 -0.069795
v -1.847722 -1.504131 -0.054594
v -1.847722 -0.498214 -0.069795
v -1.847722 -0.486380 -0.054594
v -1.835888 -1.504131 -0.031791
v -1.835888 -0.486380 -0.031791
v -1.824054 -1.527800 0.249438
v -1.824054 -1.504131 -0.077396
v -1.824054 -0.510049 0.249438
v -1.824054 -0.486380 -0.077396
v -1.812219 -1.504131 -0.039392
v -1.812219 -0.486380 -0.039392
v -1.800385 -1.515966 -0.069795
v -1.800385 -1.504131 -0.039392
v -1.800385 -0.498214 -0.069795
v -1.800385 -0.486380 -0.039392
v -1.788551 -1.504131 -0.054594
v -1.788551 -0.486380 -0.054594
v -1.776716 -1.504131 -0.054594
v -1.776716 -0.486380 -0.054594
v -1.764882 -1.515966 -0.069795
v -1.764882 -1.504131 -0.062194
v -1.764882 -0.498214 -0.069795
v -1.764882 -0.486380 -0.062194
v -1.753048 -1.504131 -0.062194
v -1.753048 -0.486380 -0.062194
v -1.741213 -1.539634 0.188632
v -1.741213 -1.515966 0.036616
v -1.741213 -0.521883 0.188632
v -1.741213 -0.498214 0.036616
v -1.717545 -1.504131 -0.077396
v -1.717545 -0.486380 -0.077396
v -1.705710 -1.515966 -0.069795
v -1.705710 -0.498214 -0.069795
v -1.693876 -1.504131 -0.077396
v -1.693876 -0.486380 -0.077396
v -1.682042 -1.515966 -0.069795
v -1.682042 -1.504131 -0.039392
v -1.682042 -0.498214 -0.069795
v -1.682042 -0.486380 -0.039392
v -1.670207 -1.504131 -0.039392
v -1.670207 -0.486380 -0.039392
v -1.658373 -1.504131 -0.062194
v -1.658373 -0.486380 -0.062194
v -1.646539 -1.527800 0.135426
v -1.646539 -1.515966 -0.062194
v -1.646539 -1.504131 -0.069795
v -1.646539 -0.510049 0.135426
v -1.646539 -0.498214 -0.062194
v -1.646539 -0.486380 -0.069795
v -1.634704 -1.504131 -0.062194
v -1.634704 -0.486380 -0.062194
v -1.622870 -1.504131 -0.046993
v -1.622870 -0.486380 -0.046993
v -1.611036 -1.504131 -0.062194
v -1.611036 -0.486380 -0.062194
v -1.599201 -1.515966 0.021414
v -1.599201 -1.504131 -0.062194
v -1.599201 -0.498214 0.021414
v -1.599201 -0.486380 -0.062194
v -1.587367 -1.504131 -0.062194
v -1.587367 -0.486380 -0.062194
v -1.575533 -1.515966 -0.077396
v -1.575533 -1.504131 -0.046993
v -1.575533 -0.498214 -0.077396
v -1.575533 -0.486380 -0.046993
v -1.563699 -1.504131 -0.077396
v -1.563699 -0.486380 -0.077396
v -1.551864 -1.515966 -0.077396
v -1.551864 -1.504131 -0.046993
v -1.551864 -0.498214 -0.077396
v -1.551864 -0.486380 -0.046993
v -1.540030 -1.539634 0.173430
v -1.540030 -1.504131 -0.046993
v -1.540030 -0.521883 0.173430
v -1.540030 -0.486380 -0.046993
v -1.528196 -1.515966 -0.062194
v -1.528196 -1.504131 -0.077396
v -1.528196 -0.498214 -0.062194
v -1.528196 -0.486380 -0.077396
v -1.516361 -1.515966 -0.077396
v -1.516361 -1.504131 -0.046993
v -1.516361 -0.498214 -0.077396
v -1.516361 -0.486380 -0.046993
v -1.504527 -1.504131 -0.031791
v -1.504527 -0.486380 -0.031791
v -1.492693 -1.515966 -0.062194
v -1.492693 -1.504131 -0.084997
v -1.492693 -0.498214 -0.062194
v -1.492693 -0.486380 -0.084997
v -1.480858 -1.504131 -0.046993
v -1.480858 -0.486380 -0.046993
v -1.469024 -1.515966 -0.069795
v -1.469024 -1.504131 -0.046993
v -1.469024 -0.498214 -0.069795
v -1.469024 -0.486380 -0.046993
v -1.457190 -1.504131 -0.062194
v -1.457190 -0.486380 -0.062194
v -1.445355 -1.515966 -0.069795
v -1.445355 -1.504131 -0.062194
v -1.445355 -0.498214 -0.069795
v -1.445355 -0.486380 -0.062194
v -1.433521 -1.527800 0.044217
v -1.433521 -1.504131 -0.046993
v -1.433521 -0.510049 0.044217
v -1.433521 -0.486380 -0.046993
v -1.421687 -1.515966 -0.069795
v -1.421687 -1.504131 -0.069795
v -1.421687 -0.498214 -0.069795
v -1.421687 -0.486380 -0.069795
v -1.409852 -1.504131 -0.054594
v -1.409852 -0.486380 -0.054594
v -1.398018 -1.504131 -0.062194
v -1.398018 -0.486380 -0.062194
v -1.386184 -1.504131 -0.054594
v -1.386184 -0.486380 -0.054594
v -1.374349 -1.504131 -0.054594
v -1.374349 -0.486380 -0.054594
v -1.362515 -1.504131 -0.069795
v -1.362515 -0.486380 -0.069795
v -1.350681 -1.504131 -0.054594
v -1.350681 -0.486380 -0.054594
v -1.338846 -1.504131 -0.039392
v -1.338846 -0.486380 -0.039392
v -1.327012 -1.504131 -0.062194
v -1.327012 -0.486380 -0.062194
v -1.315178 -1.515966 -0.069795
v -1.315178 -1.504131 -0.039392
v -1.315178 -0.498214 -0.069795
v -1.315178 -0.486380 -0.039392
v -1.303344 -1.504131 -0.054594
v -1.303344 -0.486380 -0.054594
v -1.291509 -1.504131 -0.046993
v -1.291509 -0.486380 -0.046993
v -1.256006 -1.504131 -0.039392
v -1.256006 -0.486380 -0.039392
v -1.244172 -1.504131 -0.054594
v -1.244172 -0.486380 -0.054594
v -1.232338 -1.515966 -0.039392
v -1.232338 -1.504131 -0.054594
v -1.232338 -0.498214 -0.039392
v -1.232338 -0.486380 -0.054594
v -1.220503 -1.504131 -0.039392
v -1.220503 -0.486380 -0.039392
v -1.208669 -1.504131 -0.069795
v -1.208669 -0.486380 -0.069795
v -1.196835 -1.515966 -0.069795
v -1.196835 -1.504131 -0.054594
v -1.196835 -0.498214 -0.069795
v -1.196835 -0.486380 -0.054594
v -1.185000 -1.504131 -0.077396
v -1.185000 -0.486380 -0.077396
v -1.173166 -1.515966 -0.069795
v -1.173166 -1.504131 -0.054594
v -1.173166 -0.498214 -0.069795
v -1.173166 -0.486380 -0.054594
v -1.161332 -1.539634 0.143027
v -1.161332 -1.504131 -0.039392
v -1.161332 -0.521883 0.143027
v -1.161332 -0.486380 -0.039392
v -1.149497 -1.504131 -0.039392
v -1.149497 -0.486380 -0.039392
v -1.137663 -1.504131 -0.062194
v -1.137663 -0.486380 -0.062194
v -1.113994 -1.515966 -0.084997
v -1.113994 -1.504131 -0.046993
v -1.113994 -0.498214 -0.084997
v -1.113994 -0.486380 -0.046993
v -1.102160 -1.504131 -0.062194
v -1.102160 -0.486380 -0.062194
v -1.090326 -1.515966 -0.084997
v -1.090326 -1.504131 -0.054594
v -1.090326 -0.498214 -0.084997
v -1.090326 -0.486380 -0.054594
v -1.078491 -1.504131 -0.062194
v -1.078491 -0.486380 -0.062194
v -1.054823 -1.515966 -0.062194
v -1.054823 -0.498214 -0.062194
v -1.042988 -1.515966 -0.069795
v -1.042988 -1.504131 -0.069795
v -1.042988 -0.498214 -0.069795
v -1.042988 -0.486380 -0.069795
v -1.031154 -1.504131 -0.069795
v -1.031154 -0.486380 -0.069795
v -1.019320 -1.527800 0.127825
v -1.019320 -1.515966 -0.084997
v -1.019320 -1.504131 -0.062194
v -1.019320 -0.510049 0.127825
v -1.019320 -0.498214 -0.084997
v -1.019320 -0.486380 -0.062194
v -1.007486 -1.527800 0.158229
v -1.007486 -1.515966 -0.069795
v -1.007486 -1.504131 -0.046993
v -1.007486 -0.510049 0.158229
v -1.007486 -0.498214 -0.069795
v -1.007486 -0.486380 -0.046993
v -0.995651 -1.504131 -0.062194
v -0.995651 -0.486380 -0.062194
v -0.983817 -1.515966 -0.046993
v -0.983817 -1.504131 -0.054594
v -0.983817 -0.498214 -0.046993
v -0.983817 -0.486380 -0.054594
v -0.971983 -1.504131 -0.054594
v -0.971983 -0.486380 -0.054594
v -0.960148 -1.504131 -0.062194
v -0.960148 -0.486380 -0.062194
v -0.948314 -1.539634 0.135426
v -0.948314 -1.515966 -0.077396
v -0.948314 -1.504131 -0.046993
v -0.948314 -0.521883 0.135426
v -0.948314 -0.498214 -0.077396
v -0.948314 -0.486380 -0.046993
v -0.936480 -1.527800 0.059418
v -0.936480 -1.504131 -0.062194
v -0.936480 -0.510049 0.059418
v -0.936480 -0.486380 -0.062194
v -0.924645 -1.504131 -0.054594
v -0.924645 -0.486380 -0.054594
v -0.912811 -1.504131 -0.046993
v -0.912811 -0.486380 -0.046993
v -0.900977 -1.504131 -0.054594
v -0.900977 -0.486380 -0.054594
v -0.889142 -1.504131 -0.069795
v -0.889142 -0.486380 -0.069795
v -0.877308 -1.515966 -0.084997
v -0.877308 -1.504131 -0.069795
v -0.877308 -0.498214 -0.084997
v -0.877308 -0.486380 -0.069795
v -0.865474 -1.551469 0.143027
v -0.865474 -1.504131 -0.084997
v -0.865474 -0.533717 0.143027
v -0.865474 -0.486380 -0.084997
v -0.853639 -1.515966 -0.069795
v -0.853639 -0.498214 -0.069795
v -0.841805 -1.515966 -0.084997
v -0.841805 -1.504131 -0.039392
v -0.841805 -0.498214 -0.084997
v -0.841805 -0.486380 -0.039392
v -0.829971 -1.504131 -0.054594
v -0.829971 -0.486380 -0.054594
v -0.818136 -1.515966 -0.069795
v -0.818136 -1.504131 -0.054594
v -0.818136 -0.498214 -0.069795
v -0.818136 -0.486380 -0.054594
v -0.806302 -1.504131 -0.054594
v -0.806302 -0.486380 -0.054594
v -0.794468 -1.504131 -0.069795
v -0.794468 -0.486380 -0.069795
v -0.782633 -1.515966 -0.084997
v -0.782633 -1.504131 -0.069795
v -0.782633 -0.498214 -0.084997
v -0.782633 -0.486380 -0.069795
v -0.770799 -1.551469 0.150628
v -0.770799 -0.533717 0.150628
v -0.758965 -1.504131 -0.054594
v -0.758965 -0.486380 -0.054594
v -0.747130 -1.515966 -0.077396
v -0.747130 -1.504131 -0.069795
v -0.747130 -0.498214 -0.077396
v -0.747130 -0.486380 -0.069795
v -0.735296 -1.504131 -0.069795
v -0.735296 -0.486380 -0.069795
v -0.723462 -1.504131 -0.054594
v -0.723462 -0.486380 -0.054594
v -0.699793 -1.504131 -0.062194
v -0.699793 -0.486380 -0.062194
v -0.687959 -1.504131 -0.054594
v -0.687959 -0.486380 -0.054594
v -0.664290 -1.504131 -0.062194
v -0.664290 -0.486380 -0.062194
v -0.652456 -1.515966 -0.069795
v -0.652456 -1.504131 -0.062194
v -0.652456 -0.498214 -0.069795
v -0.652456 -0.486380 -0.062194
v -0.640622 -1.504131 -0.062194
v -0.640622 -0.486380 -0.062194
v -0.628787 -1.504131 -0.039392
v -0.628787 -0.486380 -0.039392
v -0.616953 -1.504131 -0.054594
v -0.616953 -0.486380 -0.054594
v -0.605119 -1.515966 -0.069795
v -0.605119 -1.504131 -0.046993
v -0.605119 -0.498214 -0.069795
v -0.605119 -0.486380 -0.046993
v -0.593284 -1.504131 -0.054594
v -0.593284 -0.486380 -0.054594
v -0.581450 -1.504131 -0.046993
v -0.581450 -0.486380 -0.046993
v -0.569616 -1.551469 0.150628
v -0.569616 -1.515966 -0.039392
v -0.569616 -1.504131 -0.046993
v -0.569616 -0.533717 0.150628
v -0.569616 -0.498214 -0.039392
v -0.569616 -0.486380 -0.046993
v -0.557781 -1.515966 -0.069795
v -0.557781 -0.498214 -0.069795
v -0.534113 -1.515966 -0.039392
v -0.534113 -1.504131 -0.054594
v -0.534113 -0.498214 -0.039392
v -0.534113 -0.486380 -0.054594
v -0.522278 -1.504131 -0.054594
v -0.522278 -0.486380 -0.054594
v -0.510444 -1.515966 -0.077396
v -0.510444 -1.504131 -0.054594
v -0.510444 -0.498214 -0.077396
v -0.510444 -0.486380 -0.054594
v -0.498610 -1.515966 -0.039392
v -0.498610 -1.504131 -0.062194
v -0.498610 -0.498214 -0.039392
v -0.498610 -0.486380 -0.062194
v -0.486775 -1.504131 -0.062194
v -0.486775 -0.486380 -0.062194
v -0.474941 -1.515966 -0.092598
v -0.474941 -1.504131 -0.062194
v -0.474941 -0.498214 -0.092598
v -0.474941 -0.486380 -0.062194
v -0.463107 -1.504131 -0.046993
v -0.463107 -0.486380 -0.046993
v -0.451272 -1.504131 -0.046993
v -0.451272 -0.486380 -0.046993
v -0.439438 -1.504131 -0.069795
v -0.439438 -0.486380 -0.069795
v -0.427604 -1.504131 0.629478
v -0.427604 -0.486380 0.629478
v -0.415770 -1.504131 0.629478
v -0.415770 -0.486380 0.629478
v -0.403935 -1.539634 0.234236
v -0.403935 -1.504131 -0.054594
v -0.403935 -0.521883 0.234236
v -0.403935 -0.486380 -0.054594
v -0.392101 -1.504131 -0.054594
v -0.392101 -0.486380 -0.054594
v -0.380267 -1.527800 0.021414
v -0.380267 -1.504131 -0.046993
v -0.380267 -0.510049 0.021414
v -0.380267 -0.486380 -0.046993
v -0.368432 -1.515966 -0.062194
v -0.368432 -1.504131 0.599075
v -0.368432 -0.498214 -0.062194
v -0.368432 -0.486380 0.599075
v -0.356598 -1.504131 -0.069795
v -0.356598 -0.486380 -0.069795
v -0.344764 -1.504131 0.629478
v -0.344764 -0.486380 0.629478
v -0.332929 -1.504131 -0.046993
v -0.332929 -0.486380 -0.046993
v -0.297426 -1.504131 0.614276
v -0.297426 -0.486380 0.614276
v -0.285592 -1.527800 0.067019
v -0.285592 -1.504131 -0.054594
v -0.285592 -0.510049 0.067019
v -0.285592 -0.486380 -0.054594
v -0.273758 -1.515966 -0.062194
v -0.273758 -1.504131 -0.054594
v -0.273758 -0.498214 -0.062194
v -0.273758 -0.486380 -0.054594
v -0.261923 -1.504131 -0.054594
v -0.261923 -0.486380 -0.054594
v -0.250089 -1.504131 -0.054594
v -0.250089 -0.486380 -0.054594
v -0.238255 -1.515966 -0.084997
v -0.238255 -1.504131 0.599075
v -0.238255 -0.498214 -0.084997
v -0.238255 -0.486380 0.599075
v -0.226420 -1.504131 -0.054594
v -0.226420 -0.486380 -0.054594
v -0.214586 -1.515966 -0.062194
v -0.214586 -1.504131 -0.069795
v -0.214586 -0.498214 -0.062194
v -0.214586 -0.486380 -0.069795
v -0.202752 -1.504131 0.614276
v -0.202752 -0.486380 0.614276
v -0.190917 -1.504131 0.606675
v -0.190917 -0.486380 0.606675
v -0.179083 -1.539634 0.226636
v -0.179083 -1.504131 -0.054594
v -0.179083 -0.521883 0.226636
v -0.179083 -0.486380 -0.054594
v -0.167249 -1.504131 -0.054594
v -0.167249 -0.486380 -0.054594
v -0.155414 -1.527800 0.006213
v -0.155414 -1.504131 -0.054594
v -0.155414 -0.510049 0.006213
v -0.155414 -0.486380 -0.054594
v -0.143580 -1.504131 -0.084997
v -0.143580 -0.486380 -0.084997
v -0.131746 -1.504131 -0.039392
v -0.131746 -0.486380 -0.039392
v -0.119911 -1.504131 -0.062194
v -0.119911 -0.486380 -0.062194
v -0.108077 -1.504131 -0.039392
v -0.108077 -0.486380 -0.039392
v -0.096243 -1.515966 -0.084997
v -0.096243 -1.504131 -0.069795
v -0.096243 -0.498214 -0.084997
v -0.096243 -0.486380 -0.069795
v -0.084409 -1.504131 -0.046993
v -0.084409 -0.486380 -0.046993
v -0.072574 -1.515966 -0.077396
v -0.072574 -1.504131 -0.054594
v -0.072574 -0.498214 -0.077396
v -0.072574 -0.486380 -0.054594
v -0.060740 -1.504131 -0.084997
v -0.060740 -0.486380 -0.084997
v -0.048906 -1.551469 0.127825
v -0.048906 -1.515966 -0.084997
v -0.048906 -1.504131 -0.069795
v -0.048906 -0.533717 0.127825
v -0.048906 -0.498214 -0.084997
v -0.048906 -0.486380 -0.069795
v -0.037071 -1.515966 -0.054594
v -0.037071 -1.504131 -0.084997
v -0.037071 -0.498214 -0.054594
v -0.037071 -0.486380 -0.084997
v -0.025237 -1.504131 -0.046993
v -0.025237 -0.486380 -0.046993
v -0.013403 -1.539634 0.181031
v -0.013403 -1.515966 -0.077396
v -0.013403 -1.504131 -0.046993
v -0.013403 -0.521883 0.181031
v -0.013403 -0.498214 -0.077396
v -0.013403 -0.486380 -0.046993
v -0.001568 -1.515966 -0.054594
v -0.001568 -0.498214 -0.054594
v 0.010266 -1.504131 -0.054594
v 0.010266 -0.486380 -0.054594
v 0.022100 -1.504131 -0.054594
v 0.022100 -0.486380 -0.054594
v 0.045769 -1.504131 -0.062194
v 0.045769 -0.486380 -0.062194
v 0.057603 -1.504131 -0.054594
v 0.057603 -0.486380 -0.054594
v 0.069438 -1.515966 0.044217
v 0.069438 -1.504131 0.553470
v 0.069438 -0.498214 0.044217
v 0.069438 -0.486380 0.553470
v 0.081272 -1.539634 0.219035
v 0.081272 -1.504131 -0.054594
v 0.081272 -0.521883 0.219035
v 0.081272 -0.486380 -0.054594
v 0.093106 -1.504131 -0.054594
v 0.093106 -0.486380 -0.054594
v 0.104941 -1.504131 -0.039392
v 0.104941 -0.486380 -0.039392
v 0.116775 -1.504131 -0.039392
v 0.116775 -0.486380 -0.039392
v 0.128609 -1.504131 0.561071
v 0.128609 -0.486380 0.561071
v 0.140444 -1.527800 -0.008989
v 0.140444 -1.504131 0.561071
v 0.140444 -0.510049 -0.008989
v 0.140444 -0.486380 0.561071
v 0.152278 -1.504131 -0.039392
v 0.152278 -0.486380 -0.039392
v 0.164112 -1.504131 0.545869
v 0.164112 -0.486380 0.545869
v 0.175946 -1.515966 -0.069795
v 0.175946 -1.504131 -0.039392
v 0.175946 -0.498214 -0.069795
v 0.175946 -0.486380 -0.039392
v 0.187781 -1.504131 -0.069795
v 0.187781 -0.486380 -0.069795
v 0.199615 -1.504131 -0.062194
v 0.199615 -0.486380 -0.062194
v 0.211449 -1.504131 -0.069795
v 0.211449 -0.486380 -0.069795
v 0.223284 -1.504131 -0.062194
v 0.223284 -0.486380 -0.062194
v 0.235118 -1.504131 -0.069795
v 0.235118 -0.486380 -0.069795
v 0.258787 -1.504131 -0.054594
v 0.258787 -0.486380 -0.054594
v 0.270621 -1.504131 -0.031791
v 0.270621 -0.486380 -0.031791
v 0.282455 -1.504131 0.477462
v 0.282455 -0.486380 0.477462
v 0.294290 -1.504131 -0.054594
v 0.294290 -0.486380 -0.054594
v 0.306124 -1.515966 0.013813
v 0.306124 -1.504131 -0.031791
v 0.306124 -0.498214 0.013813
v 0.306124 -0.486380 -0.031791
v 0.317958 -1.515966 -0.039392
v 0.317958 -0.498214 -0.039392
v 0.329793 -1.504131 -0.054594
v 0.329793 -0.486380 -0.054594
v 0.341627 -1.504131 -0.069795
v 0.341627 -0.486380 -0.069795
v 0.353461 -1.515966 -0.100198
v 0.353461 -1.504131 -0.069795
v 0.353461 -0.498214 -0.100198
v 0.353461 -0.486380 -0.069795
v 0.365296 -1.504131 -0.054594
v 0.365296 -0.486380 -0.054594
v 0.377130 -1.515966 0.013813
v 0.377130 -1.504131 -0.069795
v 0.377130 -0.498214 0.013813
v 0.377130 -0.486380 -0.069795
v 0.388964 -1.515966 -0.024191
v 0.388964 -0.498214 -0.024191
v 0.400799 -1.515966 -0.100198
v 0.400799 -1.504131 -0.039392
v 0.400799 -0.498214 -0.100198
v 0.400799 -0.486380 -0.039392
v 0.412633 -1.504131 -0.054594
v 0.412633 -0.486380 -0.054594
v 0.424467 -1.515966 0.051817
v 0.424467 -1.504131 0.515466
v 0.424467 -0.498214 0.051817
v 0.424467 -0.486380 0.515466
v 0.436301 -1.515966 -0.024191
v 0.436301 -1.504131 -0.054594
v 0.436301 -0.498214 -0.024191
v 0.436301 -0.486380 -0.054594
v 0.448136 -1.504131 -0.054594
v 0.448136 -0.486380 -0.054594
v 0.459970 -1.539634 0.203833
v 0.459970 -1.504131 -0.046993
v 0.459970 -0.521883 0.203833
v 0.459970 -0.486380 -0.046993
v 0.471804 -1.515966 0.006213
v 0.471804 -1.504131 0.454660
v 0.471804 -0.498214 0.006213
v 0.471804 -0.486380 0.454660
v 0.483639 -1.515966 0.051817
v 0.483639 -1.504131 -0.046993
v 0.483639 -0.498214 0.051817
v 0.483639 -0.486380 -0.046993
v 0.495473 -1.504131 -0.039392
v 0.495473 -0.486380 -0.039392
v 0.507307 -1.504131 -0.062194
v 0.507307 -0.486380 -0.062194
v 0.519142 -1.515966 -0.069795
v 0.519142 -1.504131 -0.069795
v 0.519142 -0.498214 -0.069795
v 0.519142 -0.486380 -0.069795
v 0.530976 -1.527800 -0.024191
v 0.530976 -1.504131 -0.062194
v 0.530976 -0.510049 -0.024191
v 0.530976 -0.486380 -0.062194
v 0.542810 -1.515966 0.051817
v 0.542810 -1.504131 -0.054594
v 0.542810 -0.498214 0.051817
v 0.542810 -0.486380 -0.054594
v 0.554645 -1.515966 -0.039392
v 0.554645 -1.504131 -0.054594
v 0.554645 -0.498214 -0.039392
v 0.554645 -0.486380 -0.054594
v 0.566479 -1.527800 0.127825
v 0.566479 -0.510049 0.127825
v 0.578313 -1.515966 -0.077396
v 0.578313 -1.504131 -0.039392
v 0.578313 -0.498214 -0.077396
v 0.578313 -0.486380 -0.039392
v 0.601982 -1.504131 -0.054594
v 0.601982 -0.486380 -0.054594
v 0.613816 -1.515966 -0.046993
v 0.613816 -1.504131 -0.054594
v 0.613816 -0.498214 -0.046993
v 0.613816 -0.486380 -0.054594
v 0.625651 -1.515966 -0.077396
v 0.625651 -1.504131 -0.039392
v 0.625651 -0.498214 -0.077396
v 0.625651 -0.486380 -0.039392
v 0.637485 -1.515966 -0.084997
v 0.637485 -1.504131 0.477462
v 0.637485 -0.498214 -0.084997
v 0.637485 -0.486380 0.477462
v 0.649319 -1.515966 -0.031791
v 0.649319 -1.504131 0.492663
v 0.649319 -0.498214 -0.031791
v 0.649319 -0.486380 0.492663
v 0.661154 -1.504131 -0.039392
v 0.661154 -0.486380 -0.039392
v 0.672988 -1.504131 -0.069795
v 0.672988 -0.486380 -0.069795
v 0.696657 -1.527800 -0.031791
v 0.696657 -1.504131 0.439458
v 0.696657 -0.510049 -0.031791
v 0.696657 -0.486380 0.439458
v 0.708491 -1.515966 -0.084997
v 0.708491 -1.504131 -0.031791
v 0.708491 -0.498214 -0.084997
v 0.708491 -0.486380 -0.031791
v 0.720325 -1.504131 -0.062194
v 0.720325 -0.486380 -0.062194
v 0.732159 -1.515966 0.013813
v 0.732159 -1.504131 -0.069795
v 0.732159 -0.498214 0.013813
v 0.732159 -0.486380 -0.069795
v 0.743994 -1.504131 -0.054594
v 0.743994 -0.486380 -0.054594
v 0.755828 -1.504131 -0.046993
v 0.755828 -0.486380 -0.046993
v 0.767662 -1.504131 -0.054594
v 0.767662 -0.486380 -0.054594
v 0.779497 -1.515966 -0.084997
v 0.779497 -1.504131 -0.054594
v 0.779497 -0.498214 -0.084997
v 0.779497 -0.486380 -0.054594
v 0.791331 -1.515966 -0.077396
v 0.791331 -1.504131 0.469861
v 0.791331 -0.498214 -0.077396
v 0.791331 -0.486380 0.469861
v 0.803165 -1.504131 0.416656
v 0.803165 -0.486380 0.416656
v 0.815000 -1.504131 -0.062194
v 0.815000 -0.486380 -0.062194
v 0.826834 -1.504131 -0.031791
v 0.826834 -0.486380 -0.031791
v 0.838668 -1.504131 -0.054594
v 0.838668 -0.486380 -0.054594
v 0.850503 -1.504131 -0.062194
v 0.850503 -0.486380 -0.062194
v 0.862337 -1.504131 -0.054594
v 0.862337 -0.486380 -0.054594
v 0.874171 -1.515966 -0.077396
v 0.874171 -0.498214 -0.077396
v 0.886006 -1.504131 -0.062194
v 0.886006 -0.486380 -0.062194
v 0.897840 -1.515966 -0.039392
v 0.897840 -1.504131 0.386252
v 0.897840 -0.498214 -0.039392
v 0.897840 -0.486380 0.386252
v 0.909674 -1.515966 -0.077396
v 0.909674 -1.504131 -0.084997
v 0.909674 -0.498214 -0.077396
v 0.909674 -0.486380 -0.084997
v 0.921509 -1.515966 -0.077396
v 0.921509 -1.504131 -0.062194
v 0.921509 -0.498214 -0.077396
v 0.921509 -0.486380 -0.062194
v 0.933343 -1.504131 -0.084997
v 0.933343 -0.486380 -0.084997
v 0.945177 -1.504131 -0.054594
v 0.945177 -0.486380 -0.054594
v 0.957012 -1.527800 0.112624
v 0.957012 -1.515966 -0.039392
v 0.957012 -1.504131 0.036616
v 0.957012 -0.510049 0.112624
v 0.957012 -0.498214 -0.039392
v 0.957012 -0.486380 0.036616
v 0.968846 -1.527800 0.105023
v 0.968846 -1.504131 -0.062194
v 0.968846 -0.510049 0.105023
v 0.968846 -0.486380 -0.062194
v 0.980680 -1.504131 1.800000
v 0.980680 -0.486380 1.800000
v 0.992514 -1.504131 1.800000
v 0.992514 -0.486380 1.800000
f 443 449 446
f 449 450 446
f 541 544 542
f 553 557 554
f 557 558 554
f 657 661 658
f 661 662 658
f 669 672 670
f 729 732 730
f 745 748 746
f 757 761 758
f 761 762 758
f 771 775 772
f 775 776 772
f 791 795 792
f 795 796 792
f 807 811 808
f 811 812 808
f 811 815 812
f 815 816 812
f 815 819 816
f 819 820 816
f 847 851 848
f 851 852 848
f 871 875 872
f 875 876 872
f 875 879 876
f 879 880 876
f 888 893 889
